<svg xmlns="http://www.w3.org/2000/svg" xmlns:xlink="http://www.w3.org/1999/xlink" width="500" zoomAndPan="magnify" viewBox="0 0 375 374.999991" height="500" preserveAspectRatio="xMidYMid meet" version="1.2"><defs><clipPath id="34a365f8d6"><path d="M 60.347656 157 L 123 157 L 123 219.777344 L 60.347656 219.777344 Z M 60.347656 157 "/></clipPath><filter x="0%" y="0%" width="100%" filterUnits="objectBoundingBox" id="a10418d48b" height="100%"><feColorMatrix values="0 0 0 0 1 0 0 0 0 1 0 0 0 0 1 0 0 0 1 0" type="matrix" in="SourceGraphic"/></filter><clipPath id="2515aadb8f"><path d="M 0.347656 0.441406 L 62.640625 0.441406 L 62.640625 62.777344 L 0.347656 62.777344 Z M 0.347656 0.441406 "/></clipPath><clipPath id="062ea37cc9"><rect x="0" width="63" y="0" height="63"/></clipPath><clipPath id="8fc7488b89"><path d="M 77 157 L 139.847656 157 L 139.847656 219.777344 L 77 219.777344 Z M 77 157 "/></clipPath><clipPath id="7a2ebb5c03"><path d="M 0.519531 0.199219 L 62.847656 0.199219 L 62.847656 62.777344 L 0.519531 62.777344 Z M 0.519531 0.199219 "/></clipPath><clipPath id="9a407458a0"><rect x="0" width="63" y="0" height="63"/></clipPath></defs><g id="0e86693e24"><g clip-rule="nonzero" clip-path="url(#34a365f8d6)"><g mask="url(#45b9169c7f)" transform="matrix(1,0,0,1,60,157)"><g clip-path="url(#062ea37cc9)"><g clip-rule="nonzero" clip-path="url(#2515aadb8f)"><path style=" stroke:none;fill-rule:nonzero;fill:#11325b;fill-opacity:1;" d="M 40.035156 62.457031 C 34.3125 62.457031 28.59375 60.277344 24.238281 55.921875 L 6.898438 38.582031 C 2.675781 34.363281 0.351562 28.75 0.351562 22.785156 C 0.351562 16.816406 2.675781 11.207031 6.898438 6.988281 C 15.609375 -1.722656 29.78125 -1.722656 38.492188 6.988281 L 55.832031 24.328125 C 60.054688 28.546875 62.375 34.15625 62.375 40.125 C 62.375 46.09375 60.054688 51.703125 55.832031 55.921875 C 51.476562 60.277344 45.757812 62.457031 40.035156 62.457031 Z M 22.695312 10.335938 C 19.503906 10.335938 16.316406 11.550781 13.886719 13.976562 C 11.535156 16.328125 10.238281 19.457031 10.238281 22.785156 C 10.238281 26.109375 11.535156 29.238281 13.886719 31.589844 L 31.230469 48.933594 C 36.085938 53.789062 43.984375 53.789062 48.84375 48.933594 C 51.195312 46.578125 52.488281 43.453125 52.488281 40.125 C 52.488281 36.796875 51.195312 33.671875 48.84375 31.320312 L 31.5 13.976562 C 29.074219 11.550781 25.882812 10.335938 22.695312 10.335938 Z M 22.695312 10.335938 "/></g></g><mask id="45b9169c7f"><g filter="url(#a10418d48b)"><rect x="0" width="375" y="0" height="374.999991" style="fill:#000000;fill-opacity:0.7;stroke:none;"/></g></mask></g></g><g clip-rule="nonzero" clip-path="url(#8fc7488b89)"><g mask="url(#4afc9219f1)" transform="matrix(1,0,0,1,77,157)"><g clip-path="url(#9a407458a0)"><g clip-rule="nonzero" clip-path="url(#7a2ebb5c03)"><path style=" stroke:none;fill-rule:nonzero;fill:#35b8cf;fill-opacity:1;" d="M 23.15625 62.457031 C 17.433594 62.457031 11.714844 60.277344 7.359375 55.921875 C 3.140625 51.703125 0.816406 46.09375 0.816406 40.125 C 0.816406 34.15625 3.140625 28.546875 7.359375 24.328125 L 24.699219 6.988281 C 33.410156 -1.722656 47.585938 -1.722656 56.296875 6.988281 C 60.515625 11.207031 62.839844 16.816406 62.839844 22.785156 C 62.839844 28.753906 60.515625 34.363281 56.296875 38.582031 L 38.953125 55.921875 C 34.597656 60.277344 28.878906 62.457031 23.15625 62.457031 Z M 40.496094 10.335938 C 37.308594 10.335938 34.117188 11.550781 31.691406 13.976562 L 14.351562 31.320312 C 11.996094 33.671875 10.703125 36.796875 10.703125 40.125 C 10.703125 43.453125 11.996094 46.578125 14.351562 48.933594 C 19.207031 53.789062 27.105469 53.789062 31.964844 48.933594 L 49.304688 31.589844 C 51.65625 29.238281 52.953125 26.109375 52.953125 22.785156 C 52.953125 19.457031 51.65625 16.332031 49.304688 13.976562 C 46.875 11.550781 43.6875 10.335938 40.496094 10.335938 Z M 40.496094 10.335938 "/></g></g><mask id="4afc9219f1"><g filter="url(#a10418d48b)"><rect x="0" width="375" y="0" height="374.999991" style="fill:#000000;fill-opacity:0.7;stroke:none;"/></g></mask></g></g><g style="fill:#11325b;fill-opacity:1;"><g transform="translate(148.814745, 194.249987)"><path style="stroke:none" d="M 13.421875 -18.140625 L 17.078125 -18.140625 L 17.078125 0 L 13.421875 0 L 13.421875 -7.78125 L 5.609375 -7.78125 L 5.609375 0 L 1.953125 0 L 1.953125 -18.140625 L 5.609375 -18.140625 L 5.609375 -10.578125 L 13.421875 -10.578125 Z M 13.421875 -18.140625 "/></g></g><g style="fill:#11325b;fill-opacity:1;"><g transform="translate(167.84105, 194.249987)"><path style="stroke:none" d="M 8.03125 0.203125 C 5.9375 0.203125 4.226562 -0.472656 2.90625 -1.828125 C 1.59375 -3.191406 0.9375 -4.988281 0.9375 -7.21875 C 0.9375 -9.457031 1.597656 -11.25 2.921875 -12.59375 C 4.242188 -13.9375 5.957031 -14.609375 8.0625 -14.609375 C 10.175781 -14.609375 11.90625 -13.953125 13.25 -12.640625 C 14.601562 -11.335938 15.28125 -9.59375 15.28125 -7.40625 C 15.28125 -6.90625 15.25 -6.4375 15.1875 -6 L 4.6875 -6 C 4.769531 -5.070312 5.113281 -4.320312 5.71875 -3.75 C 6.320312 -3.175781 7.09375 -2.890625 8.03125 -2.890625 C 9.300781 -2.890625 10.238281 -3.410156 10.84375 -4.453125 L 14.796875 -4.453125 C 14.378906 -3.078125 13.570312 -1.957031 12.375 -1.09375 C 11.175781 -0.226562 9.726562 0.203125 8.03125 0.203125 Z M 11.484375 -8.375 C 11.429688 -9.320312 11.082031 -10.082031 10.4375 -10.65625 C 9.789062 -11.226562 9.003906 -11.515625 8.078125 -11.515625 C 7.160156 -11.515625 6.394531 -11.226562 5.78125 -10.65625 C 5.164062 -10.082031 4.800781 -9.320312 4.6875 -8.375 Z M 11.484375 -8.375 "/></g></g><g style="fill:#11325b;fill-opacity:1;"><g transform="translate(184.060188, 194.249987)"><path style="stroke:none" d="M 11.125 -4.09375 C 11.882812 -4.84375 12.265625 -5.875 12.265625 -7.1875 C 12.265625 -8.507812 11.882812 -9.546875 11.125 -10.296875 C 10.363281 -11.054688 9.472656 -11.4375 8.453125 -11.4375 C 7.429688 -11.4375 6.539062 -11.0625 5.78125 -10.3125 C 5.03125 -9.570312 4.65625 -8.539062 4.65625 -7.21875 C 4.65625 -5.90625 5.035156 -4.867188 5.796875 -4.109375 C 6.554688 -3.347656 7.441406 -2.96875 8.453125 -2.96875 C 9.472656 -2.96875 10.363281 -3.34375 11.125 -4.09375 Z M 2.875 -1.890625 C 1.582031 -3.285156 0.9375 -5.066406 0.9375 -7.234375 C 0.9375 -9.398438 1.578125 -11.171875 2.859375 -12.546875 C 4.140625 -13.921875 5.769531 -14.609375 7.75 -14.609375 C 9.726562 -14.609375 11.234375 -13.796875 12.265625 -12.171875 L 12.265625 -14.40625 L 15.90625 -14.40625 L 15.90625 0 L 12.265625 0 L 12.265625 -2.421875 C 11.179688 -0.671875 9.664062 0.203125 7.71875 0.203125 C 5.78125 0.203125 4.164062 -0.492188 2.875 -1.890625 Z M 2.875 -1.890625 "/></g></g><g style="fill:#11325b;fill-opacity:1;"><g transform="translate(201.916838, 194.249987)"><path style="stroke:none" d="M 1.953125 0 L 1.953125 -19.234375 L 5.609375 -19.234375 L 5.609375 0 Z M 1.953125 0 "/></g></g><g style="fill:#11325b;fill-opacity:1;"><g transform="translate(209.48057, 194.249987)"><path style="stroke:none" d="M 7.546875 -3.0625 L 9.28125 -3.0625 L 9.28125 0 L 6.96875 0 C 5.5 0 4.363281 -0.335938 3.5625 -1.015625 C 2.757812 -1.691406 2.359375 -2.8125 2.359375 -4.375 L 2.359375 -11.40625 L 0.828125 -11.40625 L 0.828125 -14.40625 L 2.359375 -14.40625 L 2.359375 -17.96875 L 6.03125 -17.96875 L 6.03125 -14.40625 L 9.25 -14.40625 L 9.25 -11.40625 L 6.03125 -11.40625 L 6.03125 -4.375 C 6.03125 -3.90625 6.140625 -3.566406 6.359375 -3.359375 C 6.585938 -3.160156 6.984375 -3.0625 7.546875 -3.0625 Z M 7.546875 -3.0625 "/></g></g><g style="fill:#11325b;fill-opacity:1;"><g transform="translate(219.669518, 194.249987)"><path style="stroke:none" d="M 5.609375 -19.234375 L 5.609375 -12.25 C 6.535156 -13.820312 8.03125 -14.609375 10.09375 -14.609375 C 11.738281 -14.609375 13.078125 -14.066406 14.109375 -12.984375 C 15.148438 -11.898438 15.671875 -10.394531 15.671875 -8.46875 L 15.671875 0 L 12.03125 0 L 12.03125 -7.953125 C 12.03125 -9.078125 11.742188 -9.9375 11.171875 -10.53125 C 10.609375 -11.132812 9.832031 -11.4375 8.84375 -11.4375 C 7.851562 -11.4375 7.066406 -11.132812 6.484375 -10.53125 C 5.898438 -9.9375 5.609375 -9.078125 5.609375 -7.953125 L 5.609375 0 L 1.953125 0 L 1.953125 -19.234375 Z M 5.609375 -19.234375 "/></g></g><g style="fill:#11325b;fill-opacity:1;"><g transform="translate(237.162281, 194.249987)"><path style="stroke:none" d=""/></g></g><g style="fill:#11325b;fill-opacity:1;"><g transform="translate(244.959941, 194.249987)"><path style="stroke:none" d="M 13.859375 0 L 12.6875 -3.40625 L 5.609375 -3.40625 L 4.453125 0 L 0.578125 0 L 7 -18.203125 L 11.34375 -18.203125 L 17.734375 0 Z M 6.578125 -6.21875 L 11.75 -6.21875 L 9.15625 -13.78125 Z M 6.578125 -6.21875 "/></g></g><g style="fill:#11325b;fill-opacity:1;"><g transform="translate(263.284449, 194.249987)"><path style="stroke:none" d="M 13.421875 -14.40625 L 8.734375 -7.359375 L 13.390625 0 L 9.28125 0 L 6.53125 -4.34375 L 3.875 0 L 0.1875 0 L 4.84375 -7.015625 L 0.1875 -14.40625 L 4.296875 -14.40625 L 7.046875 -10.03125 L 9.703125 -14.40625 Z M 13.421875 -14.40625 "/></g></g><g style="fill:#11325b;fill-opacity:1;"><g transform="translate(276.85238, 194.249987)"><path style="stroke:none" d="M 6 -18.0625 C 6 -17.445312 5.78125 -16.921875 5.34375 -16.484375 C 4.914062 -16.046875 4.394531 -15.828125 3.78125 -15.828125 C 3.164062 -15.828125 2.640625 -16.046875 2.203125 -16.484375 C 1.773438 -16.921875 1.5625 -17.445312 1.5625 -18.0625 C 1.5625 -18.6875 1.773438 -19.21875 2.203125 -19.65625 C 2.640625 -20.09375 3.164062 -20.3125 3.78125 -20.3125 C 4.394531 -20.3125 4.914062 -20.09375 5.34375 -19.65625 C 5.78125 -19.21875 6 -18.6875 6 -18.0625 Z M 1.953125 0 L 1.953125 -14.40625 L 5.609375 -14.40625 L 5.609375 0 Z M 1.953125 0 "/></g></g><g style="fill:#11325b;fill-opacity:1;"><g transform="translate(284.416111, 194.249987)"><path style="stroke:none" d="M 1.140625 -10.1875 C 1.140625 -11.4375 1.664062 -12.484375 2.71875 -13.328125 C 3.78125 -14.179688 5.1875 -14.609375 6.9375 -14.609375 C 8.6875 -14.609375 10.085938 -14.1875 11.140625 -13.34375 C 12.203125 -12.507812 12.769531 -11.375 12.84375 -9.9375 L 9.09375 -9.9375 C 8.988281 -11.144531 8.242188 -11.75 6.859375 -11.75 C 6.171875 -11.75 5.632812 -11.609375 5.25 -11.328125 C 4.875 -11.054688 4.6875 -10.675781 4.6875 -10.1875 C 4.6875 -9.707031 4.96875 -9.328125 5.53125 -9.046875 C 6.101562 -8.765625 6.796875 -8.546875 7.609375 -8.390625 C 8.429688 -8.234375 9.242188 -8.039062 10.046875 -7.8125 C 10.859375 -7.582031 11.546875 -7.164062 12.109375 -6.5625 C 12.679688 -5.96875 12.96875 -5.175781 12.96875 -4.1875 C 12.96875 -2.882812 12.414062 -1.828125 11.3125 -1.015625 C 10.21875 -0.203125 8.816406 0.203125 7.109375 0.203125 C 5.398438 0.203125 4 -0.195312 2.90625 -1 C 1.820312 -1.800781 1.226562 -2.957031 1.125 -4.46875 L 4.859375 -4.46875 C 4.992188 -3.257812 5.765625 -2.65625 7.171875 -2.65625 C 7.847656 -2.65625 8.394531 -2.804688 8.8125 -3.109375 C 9.226562 -3.410156 9.4375 -3.804688 9.4375 -4.296875 C 9.4375 -4.796875 9.148438 -5.1875 8.578125 -5.46875 C 8.003906 -5.757812 7.3125 -5.984375 6.5 -6.140625 C 5.6875 -6.296875 4.875 -6.484375 4.0625 -6.703125 C 3.257812 -6.929688 2.570312 -7.332031 2 -7.90625 C 1.425781 -8.488281 1.140625 -9.25 1.140625 -10.1875 Z M 1.140625 -10.1875 "/></g></g><g style="fill:#11325b;fill-opacity:1;"><g transform="translate(298.556923, 194.249987)"><path style="stroke:none" d=""/></g></g></g></svg>